<?xml version="1.0" encoding="UTF-8" standalone="no"?>
<!-- Created with Inkscape (http://www.inkscape.org/) -->

<svg
   xmlns:dc="http://purl.org/dc/elements/1.1/"
   xmlns:cc="http://creativecommons.org/ns#"
   xmlns:rdf="http://www.w3.org/1999/02/22-rdf-syntax-ns#"
   xmlns:svg="http://www.w3.org/2000/svg"
   xmlns="http://www.w3.org/2000/svg"
   xmlns:xlink="http://www.w3.org/1999/xlink"
   xmlns:sodipodi="http://sodipodi.sourceforge.net/DTD/sodipodi-0.dtd"
   xmlns:inkscape="http://www.inkscape.org/namespaces/inkscape"
   width="736.50781"
   height="820.48694"
   viewBox="0 0 194.86769 217.08717"
   version="1.1"
   id="svg8"
   inkscape:version="0.92.4 (5da689c313, 2019-01-14)"
   sodipodi:docname="body4.svg"
   style="enable-background:new"
   enable-background="new">
  <defs
     id="defs2">
    <linearGradient
       id="linearGradient1674"
       inkscape:collect="always">
      <stop
         id="stop1670"
         offset="0"
         style="stop-color:#ff8c96;stop-opacity:1" />
      <stop
         id="stop1672"
         offset="1"
         style="stop-color:#8cffa3;stop-opacity:1" />
    </linearGradient>
    <marker
       inkscape:stockid="Arrow1Lend"
       orient="auto"
       refY="0"
       refX="0"
       id="Arrow1Lend"
       style="overflow:visible"
       inkscape:isstock="true">
      <path
         id="path1327"
         d="M 0,0 5,-5 -12.5,0 5,5 Z"
         style="fill:#000000;fill-opacity:1;fill-rule:evenodd;stroke:#000000;stroke-width:1.00000003pt;stroke-opacity:1"
         transform="matrix(-0.8,0,0,-0.8,-10,0)"
         inkscape:connector-curvature="0" />
    </marker>
    <linearGradient
       inkscape:collect="always"
       xlink:href="#linearGradient1674"
       id="linearGradient5443"
       gradientUnits="userSpaceOnUse"
       x1="99.465324"
       y1="287.38916"
       x2="100.79928"
       y2="120.50076" />
    <linearGradient
       inkscape:collect="always"
       xlink:href="#linearGradient1674"
       id="linearGradient7076"
       gradientUnits="userSpaceOnUse"
       x1="99.465324"
       y1="287.38916"
       x2="96.328941"
       y2="98.023087" />
    <linearGradient
       inkscape:collect="always"
       xlink:href="#linearGradient1674"
       id="linearGradient7078"
       gradientUnits="userSpaceOnUse"
       x1="99.465324"
       y1="287.38916"
       x2="96.328941"
       y2="98.023087" />
    <linearGradient
       inkscape:collect="always"
       xlink:href="#linearGradient1674"
       id="linearGradient7080"
       gradientUnits="userSpaceOnUse"
       x1="99.465324"
       y1="287.38916"
       x2="96.328941"
       y2="98.023087" />
    <filter
       style="color-interpolation-filters:sRGB;"
       inkscape:label="Drop Shadow"
       id="filter26411">
      <feFlood
         flood-opacity="0.498039"
         flood-color="rgb(0,0,0)"
         result="flood"
         id="feFlood26401" />
      <feComposite
         in="flood"
         in2="SourceGraphic"
         operator="in"
         result="composite1"
         id="feComposite26403" />
      <feGaussianBlur
         in="composite1"
         stdDeviation="3"
         result="blur"
         id="feGaussianBlur26405" />
      <feOffset
         dx="-1"
         dy="0.4"
         result="offset"
         id="feOffset26407" />
      <feComposite
         in="SourceGraphic"
         in2="offset"
         operator="over"
         result="composite2"
         id="feComposite26409" />
    </filter>
  </defs>
  <sodipodi:namedview
     id="base"
     pagecolor="#ffffff"
     bordercolor="#666666"
     borderopacity="1.0"
     inkscape:pageopacity="0.0"
     inkscape:pageshadow="2"
     inkscape:zoom="0.7"
     inkscape:cx="-301.81938"
     inkscape:cy="391.98198"
     inkscape:document-units="mm"
     inkscape:current-layer="g5441"
     showgrid="false"
     units="px"
     inkscape:window-width="1920"
     inkscape:window-height="1017"
     inkscape:window-x="-8"
     inkscape:window-y="-8"
     inkscape:window-maximized="1"
     inkscape:snap-intersection-paths="true"
     inkscape:snap-nodes="false" />
  <metadata
     id="metadata5">
    <rdf:RDF>
      <cc:Work
         rdf:about="">
        <dc:format>image/svg+xml</dc:format>
        <dc:type
           rdf:resource="http://purl.org/dc/dcmitype/StillImage" />
        <dc:title />
      </cc:Work>
    </rdf:RDF>
  </metadata>
  <g
     id="g5441"
     inkscape:label="body4"
     style="display:inline"
     transform="translate(-7.5382602,6.5982741)"
     inkscape:groupmode="layer">
    <g
       style="display:inline;opacity:1;fill:url(#linearGradient7080);fill-opacity:1;stroke:none;filter:url(#filter26411)"
       id="g5439"
       transform="matrix(1.0121367,0,0,0.94427032,0.7274073,-65.476457)">
      <g
         style="fill:url(#linearGradient7078);fill-opacity:1;stroke:none"
         id="g5437">
        <g
           style="fill:url(#linearGradient7076);fill-opacity:1;stroke:none"
           id="g5435">
          <path
             inkscape:connector-curvature="0"
             id="path5433"
             d="m 105.90389,254.07668 c -17.60408,-1.26501 -42.143105,9.53328 -55.751305,21.65378 -6.987604,5.61488 -19.045295,22.23291 -26.251618,8.18638 -3.870979,-10.18313 3.570704,-19.65087 6.405381,-29.09742 C 45.097272,224.00573 27.444351,163.12284 16.37103,119.95192 4.0719089,55.002856 29.759577,101.53625 99.438668,105.01561 c 75.227752,-0.68404 104.515392,-47.700226 90.163552,9.60136 -14.35184,57.30159 -24.59476,119.6014 -11.3184,162.14332 2.34078,12.52792 -12.95815,16.87597 -20.12897,7.63878 -22.48298,-21.71848 -36.81448,-29.94234 -52.25096,-30.32239 z"
             style="fill:url(#linearGradient5443);fill-opacity:1;stroke:none;stroke-width:0.26458332px;stroke-linecap:butt;stroke-linejoin:miter;stroke-opacity:1"
             sodipodi:nodetypes="cccccczccc" />
        </g>
      </g>
    </g>
    <g
       id="g27113"
       style="opacity:1;fill:#01fbff;fill-opacity:1">
      <path
         d="m 63.854766,95.014286 a 9.260417,9.0714283 0 0 1 -9.440633,8.883564 9.260417,9.0714283 0 0 1 -9.07661,-9.240458 9.260417,9.0714283 0 0 1 9.4253,-8.899175 9.260417,9.0714283 0 0 1 9.092532,9.225427"
         sodipodi:open="true"
         sodipodi:end="0.017138784"
         sodipodi:start="0.020517218"
         sodipodi:ry="9.0714283"
         sodipodi:rx="9.260417"
         sodipodi:cy="94.828178"
         sodipodi:cx="54.596298"
         sodipodi:type="arc"
         id="path27083"
         style="opacity:1;fill:#01fbff;fill-opacity:1;fill-rule:nonzero;stroke:none;stroke-width:5.26499987;stroke-miterlimit:4;stroke-dasharray:none;stroke-opacity:1" />
      <path
         d="m 74.061237,115.13907 a 3.96875,4.3467264 0 0 1 -4.045985,4.25671 3.96875,4.3467264 0 0 1 -3.889976,-4.42772 3.96875,4.3467264 0 0 1 4.039414,-4.26419 3.96875,4.3467264 0 0 1 3.8968,4.42052"
         sodipodi:open="true"
         sodipodi:end="0.017138784"
         sodipodi:start="0.020517218"
         sodipodi:ry="4.3467264"
         sodipodi:rx="3.96875"
         sodipodi:cy="115.0499"
         sodipodi:cx="70.093323"
         sodipodi:type="arc"
         id="path27085"
         style="opacity:1;fill:#01fbff;fill-opacity:1;fill-rule:nonzero;stroke:none;stroke-width:5.26499987;stroke-miterlimit:4;stroke-dasharray:none;stroke-opacity:1" />
      <path
         d="m 57.807304,134.48566 a 8.5044641,7.7485118 0 0 1 -8.669968,7.58804 8.5044641,7.7485118 0 0 1 -8.335663,-7.89289 8.5044641,7.7485118 0 0 1 8.655888,-7.60138 8.5044641,7.7485118 0 0 1 8.350284,7.88005"
         sodipodi:open="true"
         sodipodi:end="0.017138784"
         sodipodi:start="0.020517218"
         sodipodi:ry="7.7485118"
         sodipodi:rx="8.5044641"
         sodipodi:cy="134.32669"
         sodipodi:cx="49.30463"
         sodipodi:type="arc"
         id="path27087"
         style="opacity:1;fill:#01fbff;fill-opacity:1;fill-rule:nonzero;stroke:none;stroke-width:5.54229212;stroke-miterlimit:4;stroke-dasharray:none;stroke-opacity:1" />
      <path
         d="m 162.1294,100.22066 a 5.2916665,4.9136906 0 0 1 -5.39464,4.81193 5.2916665,4.9136906 0 0 1 -5.18664,-5.00525 5.2916665,4.9136906 0 0 1 5.38589,-4.820386 5.2916665,4.9136906 0 0 1 5.19573,4.997106"
         sodipodi:open="true"
         sodipodi:end="0.017138784"
         sodipodi:start="0.020517218"
         sodipodi:ry="4.9136906"
         sodipodi:rx="5.2916665"
         sodipodi:cy="100.11985"
         sodipodi:cx="156.83885"
         sodipodi:type="arc"
         id="path27089"
         style="opacity:1;fill:#01fbff;fill-opacity:1;fill-rule:nonzero;stroke:none;stroke-width:5.26499987;stroke-miterlimit:4;stroke-dasharray:none;stroke-opacity:1" />
      <path
         d="m 153.43611,115.13907 a 4.5357141,4.3467264 0 0 1 -4.62398,4.25671 4.5357141,4.3467264 0 0 1 -4.44569,-4.42772 4.5357141,4.3467264 0 0 1 4.61648,-4.26419 4.5357141,4.3467264 0 0 1 4.45348,4.42052"
         sodipodi:open="true"
         sodipodi:end="0.017138784"
         sodipodi:start="0.020517218"
         sodipodi:ry="4.3467264"
         sodipodi:rx="4.5357141"
         sodipodi:cy="115.0499"
         sodipodi:cx="148.90135"
         sodipodi:type="arc"
         id="path27091"
         style="opacity:1;fill:#01fbff;fill-opacity:1;fill-rule:nonzero;stroke:none;stroke-width:5.26499987;stroke-miterlimit:4;stroke-dasharray:none;stroke-opacity:1" />
      <path
         d="m 168.93246,134.67851 a 7.7485118,7.9375 0 0 1 -7.89931,7.77312 7.7485118,7.9375 0 0 1 -7.59471,-8.0854 7.7485118,7.9375 0 0 1 7.88647,-7.78678 7.7485118,7.9375 0 0 1 7.60804,8.07225"
         sodipodi:open="true"
         sodipodi:end="0.017138784"
         sodipodi:start="0.020517218"
         sodipodi:ry="7.9375"
         sodipodi:rx="7.7485118"
         sodipodi:cy="134.51567"
         sodipodi:cx="161.18558"
         sodipodi:type="arc"
         id="path27093"
         style="opacity:1;fill:#01fbff;fill-opacity:1;fill-rule:nonzero;stroke:none;stroke-width:5.26499987;stroke-miterlimit:4;stroke-dasharray:none;stroke-opacity:1" />
      <path
         d="m 174.22497,106.8081 a 3.7797618,3.5907736 0 0 1 -3.85332,3.51641 3.7797618,3.5907736 0 0 1 -3.70474,-3.65768 3.7797618,3.5907736 0 0 1 3.84706,-3.52259 3.7797618,3.5907736 0 0 1 3.71124,3.65173"
         sodipodi:open="true"
         sodipodi:end="0.017138784"
         sodipodi:start="0.020517218"
         sodipodi:ry="3.5907736"
         sodipodi:rx="3.7797618"
         sodipodi:cy="106.73443"
         sodipodi:cx="170.446"
         sodipodi:type="arc"
         id="path27095"
         style="opacity:1;fill:#01fbff;fill-opacity:1;fill-rule:nonzero;stroke:none;stroke-width:5.26499987;stroke-miterlimit:4;stroke-dasharray:none;stroke-opacity:1" />
      <path
         d="m 99.385198,137.84091 a 6.0476193,5.4806542 0 0 1 -6.165311,5.36715 6.0476193,5.4806542 0 0 1 -5.927583,-5.58277 6.0476193,5.4806542 0 0 1 6.155299,-5.37659 6.0476193,5.4806542 0 0 1 5.93798,5.5737"
         sodipodi:open="true"
         sodipodi:end="0.017138784"
         sodipodi:start="0.020517218"
         sodipodi:ry="5.4806542"
         sodipodi:rx="6.0476193"
         sodipodi:cy="137.72847"
         sodipodi:cx="93.338852"
         sodipodi:type="arc"
         id="path27097"
         style="opacity:1;fill:#01fbff;fill-opacity:1;fill-rule:nonzero;stroke:none;stroke-width:5.26499987;stroke-miterlimit:4;stroke-dasharray:none;stroke-opacity:1" />
      <path
         d="m 158.72786,79.046232 a 4.1577382,4.5357141 0 0 1 -4.23865,4.441783 4.1577382,4.5357141 0 0 1 -4.07521,-4.62023 4.1577382,4.5357141 0 0 1 4.23177,-4.449587 4.1577382,4.5357141 0 0 1 4.08236,4.612713"
         sodipodi:open="true"
         sodipodi:end="0.017138784"
         sodipodi:start="0.020517218"
         sodipodi:ry="4.5357141"
         sodipodi:rx="4.1577382"
         sodipodi:cy="78.953178"
         sodipodi:cx="154.571"
         sodipodi:type="arc"
         id="path27099"
         style="opacity:1;fill:#01fbff;fill-opacity:1;fill-rule:nonzero;stroke:none;stroke-width:5.26499987;stroke-miterlimit:4;stroke-dasharray:none;stroke-opacity:1" />
      <path
         d="m 38.90925,77.164109 a 4.9136906,4.9136906 0 0 1 -5.009315,4.811932 4.9136906,4.9136906 0 0 1 -4.816161,-5.005249 4.9136906,4.9136906 0 0 1 5.00118,-4.820387 4.9136906,4.9136906 0 0 1 4.824608,4.997107"
         sodipodi:open="true"
         sodipodi:end="0.017138784"
         sodipodi:start="0.020517218"
         sodipodi:ry="4.9136906"
         sodipodi:rx="4.9136906"
         sodipodi:cy="77.063301"
         sodipodi:cx="33.996593"
         sodipodi:type="arc"
         id="path27101"
         style="opacity:1;fill:#01fbff;fill-opacity:1;fill-rule:nonzero;stroke:none;stroke-width:5.26499987;stroke-miterlimit:4;stroke-dasharray:none;stroke-opacity:1" />
    </g>
  </g>
</svg>
