<?xml version="1.0" encoding="UTF-8" standalone="no"?>
<!-- Created with Inkscape (http://www.inkscape.org/) -->

<svg
   xmlns:dc="http://purl.org/dc/elements/1.1/"
   xmlns:cc="http://creativecommons.org/ns#"
   xmlns:rdf="http://www.w3.org/1999/02/22-rdf-syntax-ns#"
   xmlns:svg="http://www.w3.org/2000/svg"
   xmlns="http://www.w3.org/2000/svg"
   xmlns:xlink="http://www.w3.org/1999/xlink"
   xmlns:sodipodi="http://sodipodi.sourceforge.net/DTD/sodipodi-0.dtd"
   xmlns:inkscape="http://www.inkscape.org/namespaces/inkscape"
   width="736.50781"
   height="820.48694"
   viewBox="0 0 194.86769 217.08717"
   version="1.1"
   id="svg8"
   inkscape:version="0.92.4 (5da689c313, 2019-01-14)"
   sodipodi:docname="oreille1.svg"
   style="enable-background:new">
  <defs
     id="defs2">
    <linearGradient
       inkscape:collect="always"
       id="linearGradient41432">
      <stop
         style="stop-color:#ff0000;stop-opacity:1"
         offset="0"
         id="stop41428" />
      <stop
         style="stop-color:#00ffff;stop-opacity:1"
         offset="1"
         id="stop41430" />
    </linearGradient>
    <inkscape:path-effect
       effect="vonkoch"
       id="path-effect5400"
       is_visible="true"
       ref_path="M 22.808514,193.01336 H 178.52492"
       generator="m 22.808514,289.4191 h 51.905468 m 51.905468,0 h 51.90547"
       similar_only="false"
       nbgenerations="1"
       drawall="true"
       maxComplexity="1000" />
    <inkscape:path-effect
       effect="fill_between_many"
       id="path-effect5398"
       is_visible="true"
       linkedpaths=""
       allow_transforms="false" />
    <inkscape:path-effect
       effect="gears"
       id="path-effect5396"
       is_visible="true"
       teeth="32"
       phi="6.9"
       min_radius="5" />
    <inkscape:path-effect
       effect="roughen"
       id="path-effect1691"
       is_visible="true"
       method="size"
       max_segment_size="5"
       segments="10"
       displace_x="50;1"
       displace_y="50;1"
       global_randomize="0.2;904323410"
       handles="rand"
       shift_nodes="true"
       fixed_displacement="false"
       spray_tool_friendly="false" />
    <inkscape:path-effect
       effect="taper_stroke"
       id="path-effect1685"
       is_visible="true"
       stroke_width="2.7"
       attach_start="0.99999"
       end_offset="0.2"
       smoothing="0.3"
       jointype="extrapolated"
       miter_limit="100" />
    <marker
       inkscape:stockid="Arrow1Lend"
       orient="auto"
       refY="0"
       refX="0"
       id="Arrow1Lend"
       style="overflow:visible"
       inkscape:isstock="true">
      <path
         id="path1327"
         d="M 0,0 5,-5 -12.5,0 5,5 Z"
         style="fill:#000000;fill-opacity:1;fill-rule:evenodd;stroke:#000000;stroke-width:1.00000003pt;stroke-opacity:1"
         transform="matrix(-0.8,0,0,-0.8,-10,0)"
         inkscape:connector-curvature="0" />
    </marker>
    <linearGradient
       inkscape:collect="always"
       xlink:href="#linearGradient41432"
       id="linearGradient41438"
       gradientUnits="userSpaceOnUse"
       x1="101.08002"
       y1="61.088722"
       x2="116.82454"
       y2="0.68580955"
       gradientTransform="matrix(-1.1895202,0.24370398,0.31085604,0.93255653,173.58175,-34.383481)" />
    <linearGradient
       inkscape:collect="always"
       xlink:href="#linearGradient41432"
       id="linearGradient41659"
       gradientUnits="userSpaceOnUse"
       gradientTransform="matrix(1.1895202,0.24370398,-0.31085604,0.93255653,37.985031,-34.116211)"
       x1="101.08002"
       y1="61.088722"
       x2="116.82454"
       y2="0.68580955" />
  </defs>
  <sodipodi:namedview
     id="base"
     pagecolor="#ffffff"
     bordercolor="#666666"
     borderopacity="1.0"
     inkscape:pageopacity="0.0"
     inkscape:pageshadow="2"
     inkscape:zoom="0.98994949"
     inkscape:cx="485.6847"
     inkscape:cy="869.63298"
     inkscape:document-units="mm"
     inkscape:current-layer="layer10"
     showgrid="false"
     units="px"
     inkscape:window-width="1920"
     inkscape:window-height="1017"
     inkscape:window-x="-8"
     inkscape:window-y="-8"
     inkscape:window-maximized="1"
     inkscape:snap-intersection-paths="true"
     inkscape:snap-nodes="false" />
  <metadata
     id="metadata5">
    <rdf:RDF>
      <cc:Work
         rdf:about="">
        <dc:format>image/svg+xml</dc:format>
        <dc:type
           rdf:resource="http://purl.org/dc/dcmitype/StillImage" />
        <dc:title />
      </cc:Work>
    </rdf:RDF>
  </metadata>
  <g
     inkscape:groupmode="layer"
     id="layer10"
     inkscape:label="oreille1"
     style="display:inline"
     transform="translate(-7.5382602,6.5982741)">
    <path
       sodipodi:nodetypes="cccszsccc"
       inkscape:connector-curvature="0"
       id="path41436"
       d="M 85.365519,44.54565 61.188994,48.433775 34.470072,29.411411 c 0,0 25.175361,-16.885278 6.442501,-24.4850108 C 30.336303,0.63571711 24.875675,14.298936 21.743094,13.646544 18.610514,12.994151 24.234775,-2.5916603 37.657956,-5.856223 45.429503,-7.7462891 56.369124,-1.4114854 68.356214,6.4711945 68.852608,14.043515 65.79083,18.405786 60.416768,26.758217 70.157042,40.187005 74.86342,37.777776 85.365519,44.54565 Z"
       style="fill:url(#linearGradient41438);fill-opacity:1;stroke:none;stroke-width:0.28802559px;stroke-linecap:butt;stroke-linejoin:miter;stroke-opacity:1" />
    <path
       style="opacity:0.58800001;fill:#fff6fa;fill-opacity:1;stroke:none;stroke-width:0.28802559px;stroke-linecap:butt;stroke-linejoin:miter;stroke-opacity:1"
       d="m 43.92491,-1.8059319 c -1.806163,1.14359119 -2.808942,4.0811886 -2.554524,6.9283206 1.058997,0.4563515 1.969658,0.9438979 2.742665,1.4576963 L 44.607417,6.4042191 C 44.037483,2.5940964 43.066922,2.0311088 43.92491,-1.8059319 Z"
       id="path41631"
       inkscape:connector-curvature="0"
       sodipodi:nodetypes="ccccc" />
    <path
       style="opacity:0.58800001;fill:#fff6fa;fill-opacity:1;stroke:none;stroke-width:0.28802559px;stroke-linecap:butt;stroke-linejoin:miter;stroke-opacity:1"
       d="m 32.10973,-3.6237892 c -0.864596,0.4984699 -1.68045,1.0468209 -2.447204,1.6327494 0.754576,2.42565895 1.708817,3.5629399 2.973319,5.0247657 0.01288,-2.97109587 0.05897,-4.1205022 -0.526115,-6.6575151 z"
       id="path41629"
       inkscape:connector-curvature="0"
       sodipodi:nodetypes="cccc" />
    <path
       style="opacity:0.58800001;fill:#fff6fa;fill-opacity:1;stroke:none;stroke-width:0.28802559px;stroke-linecap:butt;stroke-linejoin:miter;stroke-opacity:1"
       d="M 61.479557,2.0888044 C 54.985128,2.603206 49.088404,3.7364101 50.054058,9.4015088 53.730973,3.6100487 59.066105,4.2191343 65.080603,4.3470356 63.866938,3.5698247 62.664507,2.8127815 61.479557,2.0888044 Z"
       id="path41627"
       inkscape:connector-curvature="0"
       sodipodi:nodetypes="cccc" />
    <path
       style="opacity:0.58800001;fill:#fff6fa;fill-opacity:1;stroke:none;stroke-width:0.28802559px;stroke-linecap:butt;stroke-linejoin:miter;stroke-opacity:1"
       d="m 50.872431,15.602451 c -0.180843,-8.34e-4 -0.361505,9.1e-5 -0.542641,0.0028 -1.051189,0.01595 -2.106728,0.0951 -3.157854,0.2376 -0.35186,0.892304 -0.824616,1.782005 -1.385091,2.654641 6.278003,-1.39862 9.843579,-1.051831 14.501269,1.770249 -1.692571,-5.617723 -7.444013,-4.665022 -9.415683,-4.665329 z"
       id="path41625"
       inkscape:connector-curvature="0"
       sodipodi:nodetypes="ccccccc" />
    <path
       style="opacity:0.58800001;fill:#fff6fa;fill-opacity:1;stroke:none;stroke-width:0.28802559px;stroke-linecap:butt;stroke-linejoin:miter;stroke-opacity:1"
       d="m 55.039294,25.931825 c -7.009776,0.05008 -6.69992,1.25765 -11.571741,3.508331 6.899708,-1.012259 10.829131,-1.783258 18.545477,-0.567755 -0.518147,-0.659809 -1.047972,-1.358396 -1.596066,-2.114046 0.108079,-0.167977 0.200364,-0.311207 0.306563,-0.476015 -1.646319,-0.211683 -3.296048,-0.330081 -4.923374,-0.348889 -0.254215,-0.0029 -0.507852,-0.0034 -0.760859,-0.0017 z"
       id="path41623"
       inkscape:connector-curvature="0"
       sodipodi:nodetypes="cccccccc" />
    <path
       style="opacity:0.58800001;fill:#fff6fa;fill-opacity:1;stroke:none;stroke-width:0.28802559px;stroke-linecap:butt;stroke-linejoin:miter;stroke-opacity:1"
       d="m 53.155491,42.714627 2.316855,1.648996 c 2.597521,-5.453235 4.004398,-7.504226 9.373953,-8.396713 -4.715948,-3.957173 -9.637624,2.890989 -11.690808,6.747717 z"
       id="path41609"
       inkscape:connector-curvature="0"
       sodipodi:nodetypes="cccc" />
    <path
       style="fill:url(#linearGradient41659);fill-opacity:1;stroke:none;stroke-width:0.28802559px;stroke-linecap:butt;stroke-linejoin:miter;stroke-opacity:1"
       d="m 126.20126,44.81292 24.17653,3.888125 26.71892,-19.022364 c 0,0 -25.17536,-16.885278 -6.4425,-24.4850113 10.57627,-4.29068306 16.0369,9.3725363 19.16948,8.7201443 3.13258,-0.652393 -2.49168,-16.2382048 -15.91487,-19.5027675 -7.77154,-1.8900661 -18.71116,4.4447376 -30.69825,12.3274175 -0.4964,7.572321 2.56538,11.934592 7.93944,20.287023 -9.74027,13.428788 -14.44665,11.019559 -24.94875,17.787433 z"
       id="path41645"
       inkscape:connector-curvature="0"
       sodipodi:nodetypes="cccszsccc" />
    <path
       sodipodi:nodetypes="ccccc"
       inkscape:connector-curvature="0"
       id="path41647"
       d="m 167.64187,-1.5386624 c 1.80616,1.14359122 2.80894,4.0811886 2.55452,6.9283206 -1.05899,0.4563515 -1.96965,0.9438979 -2.74266,1.4576963 l -0.49437,-0.1758659 c 0.56994,-3.8101227 1.5405,-4.3731103 0.68251,-8.210151 z"
       style="opacity:0.58800001;fill:#fff6fa;fill-opacity:1;stroke:none;stroke-width:0.28802559px;stroke-linecap:butt;stroke-linejoin:miter;stroke-opacity:1" />
    <path
       sodipodi:nodetypes="cccc"
       inkscape:connector-curvature="0"
       id="path41649"
       d="m 179.45705,-3.3565197 c 0.8646,0.4984699 1.68045,1.0468209 2.4472,1.6327494 -0.75457,2.42565898 -1.70881,3.5629399 -2.97331,5.0247657 -0.0129,-2.97109584 -0.059,-4.12050217 0.52611,-6.6575151 z"
       style="opacity:0.58800001;fill:#fff6fa;fill-opacity:1;stroke:none;stroke-width:0.28802559px;stroke-linecap:butt;stroke-linejoin:miter;stroke-opacity:1" />
    <path
       sodipodi:nodetypes="cccc"
       inkscape:connector-curvature="0"
       id="path41651"
       d="m 150.08722,2.3560739 c 6.49443,0.5144016 12.39116,1.6476057 11.4255,7.3127044 -3.67691,-5.7914601 -9.01204,-5.1823745 -15.02654,-5.0544732 1.21366,-0.7772109 2.41609,-1.5342541 3.60104,-2.2582312 z"
       style="opacity:0.58800001;fill:#fff6fa;fill-opacity:1;stroke:none;stroke-width:0.28802559px;stroke-linecap:butt;stroke-linejoin:miter;stroke-opacity:1" />
    <path
       sodipodi:nodetypes="ccccccc"
       inkscape:connector-curvature="0"
       id="path41653"
       d="m 160.69435,15.869721 c 0.18084,-8.34e-4 0.3615,9.1e-5 0.54264,0.0028 1.05119,0.01595 2.10673,0.0951 3.15785,0.2376 0.35186,0.892304 0.82462,1.782005 1.3851,2.654641 -6.27801,-1.39862 -9.84358,-1.051831 -14.50127,1.770249 1.69257,-5.617723 7.44401,-4.665022 9.41568,-4.665329 z"
       style="opacity:0.58800001;fill:#fff6fa;fill-opacity:1;stroke:none;stroke-width:0.28802559px;stroke-linecap:butt;stroke-linejoin:miter;stroke-opacity:1" />
    <path
       sodipodi:nodetypes="cccccccc"
       inkscape:connector-curvature="0"
       id="path41655"
       d="m 156.52749,26.199095 c 7.00977,0.05008 6.69992,1.25765 11.57174,3.508331 -6.89971,-1.012259 -10.82913,-1.783258 -18.54548,-0.567755 0.51815,-0.659809 1.04797,-1.358396 1.59607,-2.114046 -0.10808,-0.167977 -0.20037,-0.311207 -0.30657,-0.476015 1.64632,-0.211683 3.29605,-0.330081 4.92338,-0.348889 0.25421,-0.0029 0.50785,-0.0034 0.76086,-0.0017 z"
       style="opacity:0.58800001;fill:#fff6fa;fill-opacity:1;stroke:none;stroke-width:0.28802559px;stroke-linecap:butt;stroke-linejoin:miter;stroke-opacity:1" />
    <path
       sodipodi:nodetypes="cccc"
       inkscape:connector-curvature="0"
       id="path41657"
       d="m 158.41129,42.981897 -2.31686,1.648996 c -2.59752,-5.453235 -4.00439,-7.504226 -9.37395,-8.396713 4.71595,-3.957173 9.63763,2.890989 11.69081,6.747717 z"
       style="opacity:0.58800001;fill:#fff6fa;fill-opacity:1;stroke:none;stroke-width:0.28802559px;stroke-linecap:butt;stroke-linejoin:miter;stroke-opacity:1" />
  </g>
</svg>
