<?xml version="1.0" encoding="UTF-8" standalone="no"?>
<svg
   xmlns:dc="http://purl.org/dc/elements/1.1/"
   xmlns:cc="http://creativecommons.org/ns#"
   xmlns:rdf="http://www.w3.org/1999/02/22-rdf-syntax-ns#"
   xmlns:svg="http://www.w3.org/2000/svg"
   xmlns="http://www.w3.org/2000/svg"
   xmlns:xlink="http://www.w3.org/1999/xlink"
   xmlns:sodipodi="http://sodipodi.sourceforge.net/DTD/sodipodi-0.dtd"
   xmlns:inkscape="http://www.inkscape.org/namespaces/inkscape"
   style="enable-background:new"
   id="svg8"
   version="1.1"
   viewBox="0 0 194.86769 217.08717"
   height="820.48694"
   width="736.50781"
   sodipodi:docname="body2.svg"
   inkscape:version="0.92.4 (5da689c313, 2019-01-14)"
   enable-background="new">
  <sodipodi:namedview
     pagecolor="#ffffff"
     bordercolor="#666666"
     borderopacity="1"
     objecttolerance="10"
     gridtolerance="10"
     guidetolerance="10"
     inkscape:pageopacity="0"
     inkscape:pageshadow="2"
     inkscape:window-width="1920"
     inkscape:window-height="1017"
     id="namedview10298"
     showgrid="false"
     inkscape:zoom="0.81355201"
     inkscape:cx="269.39425"
     inkscape:cy="371.94602"
     inkscape:window-x="-8"
     inkscape:window-y="-8"
     inkscape:window-maximized="1"
     inkscape:current-layer="layer7" />
  <defs
     id="defs2">
    <linearGradient
       id="linearGradient7285">
      <stop
         id="stop7281"
         offset="0"
         style="stop-color:#0000ff;stop-opacity:1" />
      <stop
         id="stop7283"
         offset="1"
         style="stop-color:#ffd42a;stop-opacity:1" />
    </linearGradient>
    <linearGradient
       id="linearGradient1674">
      <stop
         style="stop-color:#ff8c96;stop-opacity:1"
         offset="0"
         id="stop1670" />
      <stop
         style="stop-color:#8cffa3;stop-opacity:1"
         offset="1"
         id="stop1672" />
    </linearGradient>
    <marker
       style="overflow:visible"
       id="Arrow1Lend"
       refX="0"
       refY="0"
       orient="auto">
      <path
         transform="matrix(-0.8,0,0,-0.8,-10,0)"
         style="fill:#000000;fill-opacity:1;fill-rule:evenodd;stroke:#000000;stroke-width:1.00000003pt;stroke-opacity:1"
         d="M 0,0 5,-5 -12.5,0 5,5 Z"
         id="path1327" />
    </marker>
    <linearGradient
       id="linearGradient1295-9">
      <stop
         id="stop1291"
         offset="0"
         style="stop-color:#ff8c96;stop-opacity:1" />
      <stop
         id="stop1293"
         offset="1"
         style="stop-color:#8cffa3;stop-opacity:1" />
    </linearGradient>
    <linearGradient
       gradientUnits="userSpaceOnUse"
       y2="95.938965"
       x2="126.55212"
       y1="96.072594"
       x1="73.098221"
       id="linearGradient1250"
       xlink:href="#linearGradient1248" />
    <linearGradient
       gradientUnits="userSpaceOnUse"
       y2="115.56307"
       x2="134.83748"
       y1="115.56307"
       x1="70.024612"
       id="linearGradient1264"
       xlink:href="#linearGradient1248" />
    <radialGradient
       gradientUnits="userSpaceOnUse"
       gradientTransform="matrix(0.61573685,-0.00572155,0.01477833,1.5904005,38.19215,-56.685253)"
       r="9.0426188"
       fy="97.010132"
       fx="103.41085"
       cy="97.010132"
       cx="103.41085"
       id="radialGradient1297"
       xlink:href="#linearGradient1295-9" />
    <linearGradient
       gradientUnits="userSpaceOnUse"
       y2="98.023087"
       x2="96.328941"
       y1="287.38916"
       x1="99.465324"
       id="linearGradient1663"
       xlink:href="#linearGradient1674" />
    <linearGradient
       y2="98.023087"
       x2="96.328941"
       y1="287.38916"
       x1="99.465324"
       gradientUnits="userSpaceOnUse"
       id="linearGradient1681"
       xlink:href="#linearGradient1674" />
    <linearGradient
       y2="98.023087"
       x2="96.328941"
       y1="287.38916"
       x1="99.465324"
       gradientUnits="userSpaceOnUse"
       id="linearGradient1687"
       xlink:href="#linearGradient1674" />
    <linearGradient
       y2="98.023087"
       x2="96.328941"
       y1="287.38916"
       x1="99.465324"
       gradientUnits="userSpaceOnUse"
       id="linearGradient1689"
       xlink:href="#linearGradient1674" />
    <linearGradient
       y2="98.023087"
       x2="96.328941"
       y1="287.38916"
       x1="99.465324"
       gradientUnits="userSpaceOnUse"
       id="linearGradient5410"
       xlink:href="#linearGradient1674" />
    <linearGradient
       y2="98.023087"
       x2="96.328941"
       y1="287.38916"
       x1="99.465324"
       gradientUnits="userSpaceOnUse"
       id="linearGradient5412"
       xlink:href="#linearGradient1674" />
    <linearGradient
       y2="98.023087"
       x2="96.328941"
       y1="287.38916"
       x1="99.465324"
       gradientUnits="userSpaceOnUse"
       id="linearGradient5414"
       xlink:href="#linearGradient1674" />
    <linearGradient
       y2="98.023087"
       x2="96.328941"
       y1="287.38916"
       x1="99.465324"
       gradientUnits="userSpaceOnUse"
       id="linearGradient5416"
       xlink:href="#linearGradient1674" />
    <linearGradient
       y2="120.50076"
       x2="100.79928"
       y1="287.38916"
       x1="99.465324"
       gradientUnits="userSpaceOnUse"
       id="linearGradient5443"
       xlink:href="#linearGradient1674" />
    <linearGradient
       y2="98.023087"
       x2="96.328941"
       y1="287.38916"
       x1="99.465324"
       gradientUnits="userSpaceOnUse"
       id="linearGradient5463"
       xlink:href="#linearGradient1674" />
    <linearGradient
       y2="98.023087"
       x2="96.328941"
       y1="287.38916"
       x1="99.465324"
       gradientUnits="userSpaceOnUse"
       id="linearGradient5465"
       xlink:href="#linearGradient1674" />
    <linearGradient
       y2="98.023087"
       x2="96.328941"
       y1="287.38916"
       x1="99.465324"
       gradientUnits="userSpaceOnUse"
       id="linearGradient5467"
       xlink:href="#linearGradient1674" />
    <linearGradient
       gradientTransform="translate(-3.4745038,15.501633)"
       gradientUnits="userSpaceOnUse"
       y2="181.50089"
       x2="108.28379"
       y1="16.325287"
       x1="109.74335"
       id="linearGradient5559"
       xlink:href="#linearGradient1674" />
    <linearGradient
       y2="98.023087"
       x2="96.328941"
       y1="287.38916"
       x1="99.465324"
       gradientUnits="userSpaceOnUse"
       id="linearGradient7076"
       xlink:href="#linearGradient1674" />
    <linearGradient
       y2="98.023087"
       x2="96.328941"
       y1="287.38916"
       x1="99.465324"
       gradientUnits="userSpaceOnUse"
       id="linearGradient7078"
       xlink:href="#linearGradient1674" />
    <linearGradient
       y2="98.023087"
       x2="96.328941"
       y1="287.38916"
       x1="99.465324"
       gradientUnits="userSpaceOnUse"
       id="linearGradient7080"
       xlink:href="#linearGradient1674" />
    <linearGradient
       gradientUnits="userSpaceOnUse"
       y2="82.398819"
       x2="103.90553"
       y1="142.49702"
       x1="105.4933"
       id="linearGradient7257"
       xlink:href="#linearGradient7285" />
    <linearGradient
       y2="-74.935326"
       x2="-113.52789"
       y1="-52.443279"
       x1="-173.31387"
       gradientUnits="userSpaceOnUse"
       id="linearGradient7292"
       xlink:href="#linearGradient1674" />
    <linearGradient
       y2="98.023087"
       x2="96.328941"
       y1="287.38916"
       x1="99.465324"
       gradientUnits="userSpaceOnUse"
       id="linearGradient7933"
       xlink:href="#linearGradient1674" />
    <linearGradient
       y2="98.023087"
       x2="96.328941"
       y1="287.38916"
       x1="99.465324"
       gradientUnits="userSpaceOnUse"
       id="linearGradient7935"
       xlink:href="#linearGradient1674" />
    <linearGradient
       y2="98.023087"
       x2="96.328941"
       y1="287.38916"
       x1="99.465324"
       gradientUnits="userSpaceOnUse"
       id="linearGradient7937"
       xlink:href="#linearGradient1674" />
    <linearGradient
       y2="98.023087"
       x2="96.328941"
       y1="287.38916"
       x1="99.465324"
       gradientUnits="userSpaceOnUse"
       id="linearGradient7939"
       xlink:href="#linearGradient1674" />
    <linearGradient
       gradientTransform="matrix(0.26458333,0,0,0.26458333,0.75595238,-8.7471762)"
       gradientUnits="userSpaceOnUse"
       y2="39.033695"
       x2="385.3732"
       y1="199.64795"
       x1="386.88898"
       id="linearGradient8054"
       xlink:href="#linearGradient1674" />
    <filter
       style="color-interpolation-filters:sRGB;"
       inkscape:label="Drop Shadow"
       id="filter25241">
      <feFlood
         flood-opacity="0.498039"
         flood-color="rgb(0,0,0)"
         result="flood"
         id="feFlood25231" />
      <feComposite
         in="flood"
         in2="SourceGraphic"
         operator="in"
         result="composite1"
         id="feComposite25233" />
      <feGaussianBlur
         in="composite1"
         stdDeviation="3"
         result="blur"
         id="feGaussianBlur25235" />
      <feOffset
         dx="-1"
         dy="0.4"
         result="offset"
         id="feOffset25237" />
      <feComposite
         in="SourceGraphic"
         in2="offset"
         operator="over"
         result="composite2"
         id="feComposite25239" />
    </filter>
    <clipPath
       clipPathUnits="userSpaceOnUse"
       id="clipPath27167">
      <path
         style="fill:#01fbff;fill-opacity:1;stroke:none;stroke-width:0.30736059px;stroke-linecap:butt;stroke-linejoin:miter;stroke-opacity:1"
         d="m 2.0787406,274.1075 c 0,0 11.2377994,12.47233 16.4900834,5.45869 2.322589,-3.10146 -3.332643,-13.05731 -6.556106,-19.38928 -3.223463,-6.33197 7.912133,-16.56055 14.6521,-11.44626 11.014883,9.12636 0.679959,20.86056 7.03301,24.59729 2.051295,0.97415 8.205174,0 8.498215,-4.62722 0.293044,-4.62721 1.484403,-7.96693 -2.051289,-20.21362 -3.532168,-12.23448 23.990462,-10.4183 16.703394,2.92245 -10.934406,18.09399 5.867744,20.50633 8.498218,19.97008 8.094997,-3.89136 0.774526,-16.27507 4.940063,-21.50053 15.575138,-8.17605 21.200742,0.17547 16.464203,8.9518 -9.23871,15.1787 19.491608,11.44923 13.044683,-1.45826 -5.857306,-7.06059 16.914085,-20.965 13.986285,-7.84512 -7.84161,20.92652 22.79755,15.65242 20.93599,7.97048 -4.13336,-18.76832 24.04321,-20.21635 17.66225,-2.43538 -6.4886,8.23517 11.39149,18.27535 24.32249,12.66395 3.80954,-2.43538 5.27477,-12.66395 1.46522,-17.77824 -3.80956,-5.11429 12.89384,-14.85578 14.94514,-6.57551 2.08622,6.74218 -13.79428,28.30663 2.05129,27.51973 -4.71303,44.79963 -191.1234228,44.82242 -193.0852394,3.21495 z"
         id="path27169"
         inkscape:connector-curvature="0"
         sodipodi:nodetypes="cssccsscccccccccsccc" />
    </clipPath>
    <linearGradient
       inkscape:collect="always"
       xlink:href="#linearGradient1674"
       id="linearGradient27171"
       gradientUnits="userSpaceOnUse"
       x1="99.465324"
       y1="287.38916"
       x2="96.328941"
       y2="98.023087" />
    <linearGradient
       inkscape:collect="always"
       xlink:href="#linearGradient1674"
       id="linearGradient27173"
       gradientUnits="userSpaceOnUse"
       x1="99.465324"
       y1="287.38916"
       x2="96.328941"
       y2="98.023087" />
    <linearGradient
       inkscape:collect="always"
       xlink:href="#linearGradient1674"
       id="linearGradient27175"
       gradientUnits="userSpaceOnUse"
       x1="99.465324"
       y1="287.38916"
       x2="96.328941"
       y2="98.023087" />
    <linearGradient
       inkscape:collect="always"
       xlink:href="#linearGradient1674"
       id="linearGradient27177"
       gradientUnits="userSpaceOnUse"
       x1="99.465324"
       y1="287.38916"
       x2="96.328941"
       y2="98.023087" />
  </defs>
  <metadata
     id="metadata5">
    <rdf:RDF>
      <cc:Work
         rdf:about="">
        <dc:format>image/svg+xml</dc:format>
        <dc:type
           rdf:resource="http://purl.org/dc/dcmitype/StillImage" />
        <dc:title />
      </cc:Work>
    </rdf:RDF>
  </metadata>
  <g
     transform="translate(-7.5382602,6.5982741)"
     style="display:inline;filter:url(#filter25241)"
     id="layer7"
     inkscape:groupmode="layer">
    <g
       transform="matrix(1.0121367,0,0,0.94427032,2.9684024,-66.950373)"
       id="g5408"
       style="display:inline;opacity:1;fill:url(#linearGradient27177);fill-opacity:1;stroke:none">
      <g
         id="g5406"
         style="fill:url(#linearGradient27175);fill-opacity:1;stroke:none">
        <g
           id="g5404"
           style="fill:url(#linearGradient27173);fill-opacity:1;stroke:none">
          <path
             style="fill:url(#linearGradient27171);fill-opacity:1;stroke:none;stroke-width:0.26458332px;stroke-linecap:butt;stroke-linejoin:miter;stroke-opacity:1"
             d="m 99.038207,292.0045 c -17.604078,-1.26501 -35.277422,-28.39454 -48.885622,-16.27404 -6.987604,5.61488 -19.045295,22.23291 -26.251618,8.18638 -3.870979,-10.18313 3.570704,-19.65087 6.405381,-29.09742 14.790924,-30.81369 8.228719,-32.82354 -2.844602,-75.99446 -12.426739,-64.40191 -0.16381,-82.035461 75.556674,-81.242036 69.92198,-0.45723 82.97925,23.700276 68.62741,81.001866 -14.35184,57.3016 -6.63837,55.63358 6.63799,98.1755 2.34078,12.52792 -12.95815,16.87597 -20.12897,7.63878 -22.48298,-21.71848 -43.68016,7.98548 -59.116643,7.60543 z"
             id="path5402"
             inkscape:connector-curvature="0" />
        </g>
      </g>
    </g>
    <path
       style="opacity:1;fill:#01fbff;fill-opacity:1;fill-rule:nonzero;stroke:none;stroke-width:8.67618465;stroke-miterlimit:4;stroke-dasharray:none;stroke-opacity:1"
       id="path40113"
       sodipodi:type="arc"
       sodipodi:cx="97.136375"
       sodipodi:cy="34.870132"
       sodipodi:rx="11.22011"
       sodipodi:ry="7.1548386"
       sodipodi:start="0.020517218"
       sodipodi:end="6.2785951"
       d="M 108.35412,35.01692 A 11.22011,7.1548386 0 0 1 96.976602,42.024246 11.22011,7.1548386 0 0 1 85.916621,34.813155 11.22011,7.1548386 0 0 1 97.1553,27.715304 11.22011,7.1548386 0 0 1 108.35637,34.83729 l -11.219995,0.03284 z" />
    <path
       style="opacity:1;fill:#01fbff;fill-opacity:1;fill-rule:nonzero;stroke:none;stroke-width:7.52192545;stroke-miterlimit:4;stroke-dasharray:none;stroke-opacity:1"
       id="path40115"
       sodipodi:type="arc"
       sodipodi:cx="137.23413"
       sodipodi:cy="-7.812171"
       sodipodi:rx="9.2765064"
       sodipodi:ry="6.8070207"
       sodipodi:start="0.020517218"
       sodipodi:end="6.2785951"
       d="m 146.50868,-7.6725197 a 9.2765064,6.8070207 0 0 1 -9.40665,6.6666792 9.2765064,6.8070207 0 0 1 -9.14411,-6.8605377 9.2765064,6.8070207 0 0 1 9.29186,-6.7528038 9.2765064,6.8070207 0 0 1 9.26076,6.7757655 l -9.27641,0.031245 z"
       transform="matrix(0.93961347,0.34223752,-0.38246013,0.92397199,0,0)" />
    <path
       style="opacity:1;fill:#01fbff;fill-opacity:1;fill-rule:nonzero;stroke:none;stroke-width:5.26499987;stroke-miterlimit:4;stroke-dasharray:none;stroke-opacity:1"
       id="path40117"
       sodipodi:type="arc"
       sodipodi:cx="74.696175"
       sodipodi:cy="45.114559"
       sodipodi:rx="6.0165687"
       sodipodi:ry="3.7400293"
       sodipodi:start="0.020517218"
       sodipodi:end="6.2785951"
       d="m 80.711477,45.191289 a 6.0165687,3.7400293 0 0 1 -6.100978,3.66292 6.0165687,3.7400293 0 0 1 -5.930702,-3.769433 6.0165687,3.7400293 0 0 1 6.026525,-3.710241 6.0165687,3.7400293 0 0 1 6.006358,3.722857 l -6.016505,0.01717 z" />
    <path
       style="opacity:1;fill:#01fbff;fill-opacity:1;fill-rule:nonzero;stroke:none;stroke-width:5.85983372;stroke-miterlimit:4;stroke-dasharray:none;stroke-opacity:1"
       id="path40119"
       sodipodi:type="arc"
       sodipodi:cx="164.28621"
       sodipodi:cy="-66.458176"
       sodipodi:rx="9.4110823"
       sodipodi:ry="5.5686326"
       sodipodi:start="0.020517218"
       sodipodi:end="6.2785951"
       d="m 173.69531,-66.343931 a 9.4110823,5.5686326 0 0 1 -9.54311,5.453823 9.4110823,5.5686326 0 0 1 -9.27677,-5.612413 9.4110823,5.5686326 0 0 1 9.42665,-5.524279 9.4110823,5.5686326 0 0 1 9.39511,5.543063 l -9.41098,0.02556 z"
       transform="matrix(0.782998,0.62202423,-0.55123622,0.83434923,0,0)" />
    <path
       style="opacity:1;fill:#01fbff;fill-opacity:1;fill-rule:nonzero;stroke:none;stroke-width:4.46361637;stroke-miterlimit:4;stroke-dasharray:none;stroke-opacity:1"
       id="path40125"
       sodipodi:type="arc"
       sodipodi:cx="100.31997"
       sodipodi:cy="123.12141"
       sodipodi:rx="3.7400215"
       sodipodi:ry="4.8782992"
       sodipodi:start="0.020517218"
       sodipodi:end="6.2785951"
       d="m 104.0592,123.22149 a 3.7400215,4.8782992 0 0 1 -3.79249,4.77772 3.7400215,4.8782992 0 0 1 -3.686644,-4.91665 3.7400215,4.8782992 0 0 1 3.746214,-4.83945 3.7400215,4.8782992 0 0 1 3.73367,4.8559 l -3.73998,0.0224 z"
       transform="rotate(-32.540822)" />
    <path
       style="opacity:1;fill:#01fbff;fill-opacity:1;fill-rule:nonzero;stroke:none;stroke-width:10.78421402;stroke-miterlimit:4;stroke-dasharray:none;stroke-opacity:1"
       id="path40129"
       sodipodi:type="arc"
       sodipodi:cx="27.035643"
       sodipodi:cy="63.489407"
       sodipodi:rx="11.545341"
       sodipodi:ry="6.3417888"
       sodipodi:start="0.020517218"
       sodipodi:end="6.2785951"
       d="m 38.578553,63.619513 a 11.545341,6.3417888 0 0 1 -11.707315,6.211039 11.545341,6.3417888 0 0 1 -11.38057,-6.391648 11.545341,6.3417888 0 0 1 11.564448,-6.291277 11.545341,6.3417888 0 0 1 11.525746,6.31267 l -11.545219,0.02911 z"
       transform="rotate(-29.586796)" />
    <path
       style="opacity:1;fill:#01fbff;fill-opacity:1;fill-rule:nonzero;stroke:none;stroke-width:5.26499987;stroke-miterlimit:4;stroke-dasharray:none;stroke-opacity:1"
       id="path40131"
       sodipodi:type="arc"
       sodipodi:cx="38.596771"
       sodipodi:cy="57.635529"
       sodipodi:rx="4.3904691"
       sodipodi:ry="3.2521992"
       sodipodi:start="0.020517218"
       sodipodi:end="6.2785951"
       d="m 42.986316,57.70225 a 4.3904691,3.2521992 0 0 1 -4.452065,3.185148 4.3904691,3.2521992 0 0 1 -4.32781,-3.277768 4.3904691,3.2521992 0 0 1 4.397735,-3.226296 4.3904691,3.2521992 0 0 1 4.383018,3.237266 l -4.390423,0.01493 z" />
  </g>
  <g
     id="layer13"
     inkscape:label="Layer 1"
     style="display:inline"
     inkscape:groupmode="layer" />
</svg>
