<?xml version="1.0" encoding="UTF-8" standalone="no"?>
<!-- Created with Inkscape (http://www.inkscape.org/) -->

<svg
   xmlns:dc="http://purl.org/dc/elements/1.1/"
   xmlns:cc="http://creativecommons.org/ns#"
   xmlns:rdf="http://www.w3.org/1999/02/22-rdf-syntax-ns#"
   xmlns:svg="http://www.w3.org/2000/svg"
   xmlns="http://www.w3.org/2000/svg"
   xmlns:xlink="http://www.w3.org/1999/xlink"
   xmlns:sodipodi="http://sodipodi.sourceforge.net/DTD/sodipodi-0.dtd"
   xmlns:inkscape="http://www.inkscape.org/namespaces/inkscape"
   width="736.50781"
   height="820.48694"
   viewBox="0 0 194.86769 217.08717"
   version="1.1"
   id="svg8"
   inkscape:version="0.92.4 (5da689c313, 2019-01-14)"
   sodipodi:docname="body5.svg"
   style="enable-background:new">
  <defs
     id="defs2">
    <linearGradient
       id="linearGradient1674"
       inkscape:collect="always">
      <stop
         style="stop-color:#8cffa3;stop-opacity:1"
         offset="0"
         id="stop1672" />
      <stop
         style="stop-color:#ff8c96;stop-opacity:1"
         offset="1"
         id="stop1670" />
    </linearGradient>
    <marker
       inkscape:stockid="Arrow1Lend"
       orient="auto"
       refY="0"
       refX="0"
       id="Arrow1Lend"
       style="overflow:visible"
       inkscape:isstock="true">
      <path
         id="path1327"
         d="M 0,0 5,-5 -12.5,0 5,5 Z"
         style="fill:#000000;fill-opacity:1;fill-rule:evenodd;stroke:#000000;stroke-width:1.00000003pt;stroke-opacity:1"
         transform="matrix(-0.8,0,0,-0.8,-10,0)"
         inkscape:connector-curvature="0" />
    </marker>
    <linearGradient
       inkscape:collect="always"
       xlink:href="#linearGradient1674"
       id="linearGradient5463"
       gradientUnits="userSpaceOnUse"
       x1="99.465324"
       y1="287.38916"
       x2="96.328941"
       y2="98.023087" />
    <linearGradient
       inkscape:collect="always"
       xlink:href="#linearGradient1674"
       id="linearGradient5465"
       gradientUnits="userSpaceOnUse"
       x1="99.465324"
       y1="287.38916"
       x2="96.328941"
       y2="98.023087" />
    <linearGradient
       inkscape:collect="always"
       xlink:href="#linearGradient1674"
       id="linearGradient5467"
       gradientUnits="userSpaceOnUse"
       x1="99.465324"
       y1="287.38916"
       x2="96.328941"
       y2="98.023087" />
    <filter
       style="color-interpolation-filters:sRGB;"
       inkscape:label="Drop Shadow"
       id="filter24010">
      <feFlood
         flood-opacity="0.498039"
         flood-color="rgb(0,0,0)"
         result="flood"
         id="feFlood24000" />
      <feComposite
         in="flood"
         in2="SourceGraphic"
         operator="in"
         result="composite1"
         id="feComposite24002" />
      <feGaussianBlur
         in="composite1"
         stdDeviation="3"
         result="blur"
         id="feGaussianBlur24004" />
      <feOffset
         dx="-1"
         dy="0.4"
         result="offset"
         id="feOffset24006" />
      <feComposite
         in="SourceGraphic"
         in2="offset"
         operator="over"
         result="composite2"
         id="feComposite24008" />
    </filter>
    <clipPath
       clipPathUnits="userSpaceOnUse"
       id="clipPath28395">
      <g
         id="g28403">
        <path
           style="fill:#01fbff;fill-opacity:1;stroke:none;stroke-width:0.29712102px;stroke-linecap:butt;stroke-linejoin:miter;stroke-opacity:1"
           d="M -9.7431413,192.44166 C 52.267617,145.93142 69.443471,139.12511 99.417817,120.27138 c 3.100993,4.15922 2.602333,9.66787 -47.041031,44.93628 -36.100035,20.98335 -65.22289,36.57048 -62.1199273,27.234 z"
           id="path28397"
           inkscape:connector-curvature="0"
           sodipodi:nodetypes="cccc" />
        <path
           sodipodi:nodetypes="cccc"
           inkscape:connector-curvature="0"
           id="path28399"
           d="m 37.820554,198.96112 c 61.241008,-48.44409 78.362376,-55.67535 108.059396,-75.39774 3.2319,4.18065 2.87354,9.79841 -46.204936,46.57916 -35.811076,21.99814 -64.73583,38.37952 -61.85446,28.81858 z"
           style="fill:#01fbff;fill-opacity:1;stroke:none;stroke-width:0.30095655px;stroke-linecap:butt;stroke-linejoin:miter;stroke-opacity:1" />
        <path
           sodipodi:nodetypes="cccc"
           inkscape:connector-curvature="0"
           id="path28401"
           d="m 87.989134,197.23898 c 60.994436,-47.83529 78.019686,-55.01003 107.580916,-74.50509 3.18988,4.09144 2.81,9.60957 -46.06208,45.93922 -35.63964,21.75614 -64.419957,37.96703 -61.518836,28.56587 z"
           style="display:inline;fill:#01fbff;fill-opacity:1;stroke:none;stroke-width:0.29712105px;stroke-linecap:butt;stroke-linejoin:miter;stroke-opacity:1;enable-background:new" />
      </g>
    </clipPath>
    <linearGradient
       inkscape:collect="always"
       xlink:href="#linearGradient1674"
       id="linearGradient28405"
       gradientUnits="userSpaceOnUse"
       gradientTransform="translate(-1.962599,13.233776)"
       x1="109.74335"
       y1="16.325287"
       x2="108.28379"
       y2="181.50089" />
  </defs>
  <sodipodi:namedview
     id="base"
     pagecolor="#ffffff"
     bordercolor="#666666"
     borderopacity="1.0"
     inkscape:pageopacity="0.0"
     inkscape:pageshadow="2"
     inkscape:zoom="0.7"
     inkscape:cx="422.46633"
     inkscape:cy="391.98198"
     inkscape:document-units="mm"
     inkscape:current-layer="g5453"
     showgrid="false"
     units="px"
     inkscape:window-width="1920"
     inkscape:window-height="1017"
     inkscape:window-x="-8"
     inkscape:window-y="-8"
     inkscape:window-maximized="1"
     inkscape:snap-intersection-paths="true"
     inkscape:snap-nodes="false" />
  <metadata
     id="metadata5">
    <rdf:RDF>
      <cc:Work
         rdf:about="">
        <dc:format>image/svg+xml</dc:format>
        <dc:type
           rdf:resource="http://purl.org/dc/dcmitype/StillImage" />
        <dc:title />
      </cc:Work>
    </rdf:RDF>
  </metadata>
  <g
     inkscape:groupmode="layer"
     id="g5453"
     inkscape:label="body5"
     style="display:inline"
     transform="translate(-7.5382602,6.5982741)">
    <g
       style="display:inline;opacity:1;fill:url(#linearGradient5467);fill-opacity:1;stroke:none"
       id="g5451"
       transform="matrix(1.0121367,0,0,0.94427032,5.240192,-78.80626)">
      <g
         style="fill:url(#linearGradient5465);fill-opacity:1;stroke:none"
         id="g5449">
        <g
           style="fill:url(#linearGradient5463);fill-opacity:1;stroke:none"
           id="g5447" />
      </g>
    </g>
    <path
       id="path5488"
       style="fill:url(#linearGradient28405);fill-opacity:1;stroke:none;stroke-width:0.31044921px;stroke-linecap:butt;stroke-linejoin:miter;stroke-opacity:1;filter:url(#filter24010)"
       d="m 17.434149,54.249054 c -3.920269,4.865868 -5.566392,10.134259 -6.150012,14.830618 -0.43674,3.514527 -1.092762,7.674982 -2.233972,11.895912 4.77236,-4.69211 4.400394,-9.986988 9.842293,-14.432189 -4.932139,8.688449 -4.460424,17.986469 -6.561873,26.994219 2.246679,-4.42249 5.036495,-8.5795 5.390884,-12.51138 0.198562,-2.20292 1.747609,-4.14244 2.890227,-4.8299 -0.249784,5.96567 1.58816,10.77688 -1.47946,19.54683 -2.26493,6.475156 3.203065,8.365026 3.587895,9.888276 -0.34904,-1.87363 -3.015214,-3.73142 -0.516764,-7.551987 1.589068,-2.429969 1.898365,-5.374329 2.999167,-5.880259 2.5336,8.861236 4.622301,14.068976 6.128957,20.915076 -4.038401,3.96247 -4.879977,6.65898 -6.293156,10.28456 -1.319549,3.38545 -3.014614,7.36125 -5.189863,11.28407 5.772748,-3.5477 6.774836,-8.88757 13.125297,-12.03493 -6.950721,7.47543 -8.88407,16.80989 -13.20643,25.25893 3.285371,-3.86626 7.022768,-7.34298 8.370548,-11.1616 0.910381,-2.57937 3.608884,-4.32207 5.428093,-6.34586 -2.683819,5.24252 -1.500198,11.49008 -7.851716,21.27364 -3.829311,5.8985 0.920871,9.04223 0.898652,10.64276 0.146351,-1.93984 -1.92975,-4.40126 1.442288,-7.61194 3.124751,-2.97519 3.365122,-4.09746 6.6983,-8.09615 l 4.604942,-2.92912 c 0.487233,11.10596 0.456786,19.53025 -4.877277,29.8975 -2.869081,8.92009 -10.401284,17.86021 -6.483324,27.47584 7.293785,13.26372 19.497543,-2.42831 26.569953,-7.73028 2.212687,-1.83864 4.714028,-3.64427 7.422803,-5.37641 -1.160417,1.84049 -1.972688,3.02008 -3.053043,5.67717 -1.719376,4.2288 -4.764264,3.09375 -6.503479,3.87315 1.471496,-0.55055 6.137005,2.8698 10.171988,-2.67787 6.692614,-9.20164 12.907415,-10.15812 16.760219,-14.41308 -1.19724,2.37795 -1.809102,5.48853 -3.856614,7.19698 -3.031204,2.52923 -4.861081,7.18894 -7.21868,11.5533 6.210398,-6.85467 14.12413,-11.75851 18.460889,-20.75894 -0.557697,7.00451 -5.122929,9.7125 -6.264735,16.30702 2.821053,-3.34071 5.868379,-6.24832 8.509558,-8.60775 3.281836,-2.93172 6.445954,-6.90273 8.29665,-12.26333 4.802636,-0.87337 8.384006,0.62844 12.633446,0.91332 3.08155,0.0708 4.78374,0.30184 8.45153,1.72481 1.10032,5.59492 4.14485,6.51063 6.36141,9.87635 2.00525,3.04485 4.25717,6.73459 6.12521,10.76937 0.52932,-5.79807 -4.17036,-8.35691 -1.18339,-17.43615 1.58233,9.88828 8.31289,16.94614 12.592,25.35195 -1.03654,-4.87153 -1.41661,-9.86573 -3.77755,-13.1899 -1.59476,-2.2454 -1.20393,-5.3958 -1.67639,-8.0238 2.65384,5.21714 8.90542,7.9989 12.91136,18.788 2.41518,6.50475 8.48884,4.64733 9.8609,5.61516 -1.57877,-1.26664 -5.17611,-1.10011 -5.58312,-5.6503 -0.37718,-4.21649 -1.18091,-5.07166 -2.14871,-10.62648 3.86329,2.39436 7.79948,5.75847 12.02097,9.56298 7.25785,8.72241 22.74263,4.61674 20.37343,-7.21299 -6.14523,-18.37104 -8.53978,-32.70761 -7.94163,-48.0317 l 1.80919,0.87954 c 3.33318,3.99868 3.57355,5.12095 6.6983,8.09614 3.37204,3.21068 1.29594,5.67262 1.44229,7.61246 -0.0222,-1.60053 4.72796,-4.74426 0.89865,-10.64276 -6.35152,-9.78356 -5.16789,-16.03112 -7.85171,-21.27364 1.81921,2.02379 4.51771,3.76597 5.42809,6.34535 1.34778,3.81862 5.08466,7.29533 8.37003,11.16159 -4.32236,-8.44904 -6.25519,-17.78298 -13.20591,-25.2584 6.35046,3.14735 7.35255,8.4867 13.1253,12.0344 -2.17525,-3.92282 -3.87083,-7.8981 -5.19039,-11.28355 -1.37443,-3.52617 -3.46141,-7.24572 -6.68124,-10.57093 1.50868,-6.73993 3.34098,-14.041657 5.45807,-22.116986 1.86446,3.8911 1.981,5.11916 4.15116,8.437729 2.49845,3.820567 -0.16772,5.677837 -0.51676,7.551467 0.38483,-1.52324 5.85282,-3.41312 3.58789,-9.888276 -3.75673,-10.74002 -1.00627,-16.39405 -2.312,-21.98367 1.27381,2.33782 3.48338,4.61137 3.72277,7.26725 0.35439,3.93188 3.1442,8.08838 5.39088,12.51087 -2.10145,-9.00775 -1.62973,-18.30577 -6.56187,-26.994221 5.4419,4.445201 5.06993,9.740591 9.84229,14.432711 -1.14121,-4.22093 -1.79723,-8.381905 -2.23397,-11.896431 -0.58362,-4.69636 -2.22974,-9.964751 -6.15001,-14.830618 l -1.78284,-0.871265 c 0.0232,-16.558273 -8.3417,-24.049404 -25.5819,-27.377657 -14.05014,-2.712407 -33.99402,-2.660882 -60.09349,-2.501657 -11.974916,-0.117063 -22.616775,-0.305262 -32.00166,-0.307474 -39.407943,-0.0093 -56.654289,3.260577 -57.9207,28.674606 z"
       inkscape:connector-curvature="0"
       sodipodi:nodetypes="cccccccscccccccccccccccccccccscccccccccccccscsccccccccccccccccccccsccccccccscscc" />
    <path
       sodipodi:nodetypes="cccccccscccccccccccccccccccccscccccccccccccscsccccccccccccccccccccsccccccccscscc"
       inkscape:connector-curvature="0"
       d="m 15.922244,56.516911 c -3.920269,4.865868 -5.566392,10.134259 -6.1500118,14.830618 -0.43674,3.514527 -1.092762,7.674982 -2.233972,11.895912 4.7723598,-4.69211 4.4003938,-9.986988 9.8422928,-14.432189 -4.932139,8.688449 -4.460424,17.986469 -6.561873,26.994219 2.246679,-4.42249 5.036495,-8.5795 5.390884,-12.51138 0.198562,-2.20292 1.747609,-4.14244 2.890227,-4.8299 -0.249784,5.96567 1.58816,10.77688 -1.47946,19.54683 -2.26493,6.475159 3.203065,8.365029 3.587895,9.888279 -0.34904,-1.87363 -3.015214,-3.73142 -0.516764,-7.55199 1.589068,-2.429969 1.898365,-5.374329 2.999167,-5.880259 2.5336,8.861239 4.622301,14.068979 6.128957,20.915079 -4.038401,3.96247 -4.879977,6.65898 -6.293156,10.28456 -1.319549,3.38545 -3.014614,7.36125 -5.189863,11.28407 5.772748,-3.5477 6.774836,-8.88757 13.125297,-12.03493 -6.950721,7.47543 -8.88407,16.80989 -13.20643,25.25893 3.285371,-3.86626 7.022768,-7.34298 8.370548,-11.1616 0.910381,-2.57937 3.608884,-4.32207 5.428093,-6.34586 -2.683819,5.24252 -1.500198,11.49008 -7.851716,21.27364 -3.829311,5.8985 0.920871,9.04223 0.898652,10.64276 0.146351,-1.93984 -1.92975,-4.40126 1.442288,-7.61194 3.124751,-2.97519 3.365122,-4.09746 6.6983,-8.09615 l 4.604942,-2.92912 c 0.487233,11.10596 0.456786,19.53025 -4.877277,29.8975 -2.869081,8.92009 -10.401284,17.86021 -6.483324,27.47584 7.293785,13.26372 19.497543,-2.42831 26.569953,-7.73028 2.212687,-1.83864 4.714028,-3.64427 7.422803,-5.37641 -1.160417,1.84049 -1.972688,3.02008 -3.053043,5.67717 -1.719376,4.2288 -4.764264,3.09375 -6.503479,3.87315 1.471496,-0.55055 6.137005,2.8698 10.171988,-2.67787 6.692614,-9.20164 12.907415,-10.15812 16.760219,-14.41308 -1.19724,2.37795 -1.809102,5.48853 -3.856614,7.19698 -3.031204,2.52923 -4.861081,7.18894 -7.21868,11.5533 6.210398,-6.85467 14.12413,-11.75851 18.460889,-20.75894 -0.557697,7.00451 -5.122929,9.7125 -6.264735,16.30702 2.821053,-3.34071 5.868379,-6.24832 8.509558,-8.60775 3.281836,-2.93172 6.445954,-6.90273 8.29665,-12.26333 4.802641,-0.87337 8.384011,0.62844 12.633451,0.91332 3.08155,0.0708 4.78374,0.30184 8.45153,1.72481 1.10032,5.59492 4.14485,6.51063 6.36141,9.87635 2.00525,3.04485 4.25717,6.73459 6.12521,10.76937 0.52932,-5.79807 -4.17036,-8.35691 -1.18339,-17.43615 1.58233,9.88828 8.31289,16.94614 12.592,25.35195 -1.03654,-4.87153 -1.41661,-9.86573 -3.77755,-13.1899 -1.59476,-2.2454 -1.20393,-5.3958 -1.67639,-8.0238 2.65384,5.21714 8.90542,7.9989 12.91136,18.788 2.41518,6.50475 8.48884,4.64733 9.8609,5.61516 -1.57877,-1.26664 -5.17611,-1.10011 -5.58312,-5.6503 -0.37718,-4.21649 -1.18091,-5.07166 -2.14871,-10.62648 3.86329,2.39436 7.79948,5.75847 12.02097,9.56298 7.25785,8.72241 22.74263,4.61674 20.37343,-7.21299 -6.14523,-18.37104 -8.53978,-32.70761 -7.94163,-48.0317 l 1.80919,0.87954 c 3.33318,3.99868 3.57355,5.12095 6.6983,8.09614 3.37204,3.21068 1.29594,5.67262 1.44229,7.61246 -0.0222,-1.60053 4.72796,-4.74426 0.89865,-10.64276 -6.35152,-9.78356 -5.16789,-16.03112 -7.85171,-21.27364 1.81921,2.02379 4.51771,3.76597 5.42809,6.34535 1.34778,3.81862 5.08466,7.29533 8.37003,11.16159 -4.32236,-8.44904 -6.25519,-17.78298 -13.20591,-25.2584 6.35046,3.14735 7.35255,8.4867 13.1253,12.0344 -2.17525,-3.92282 -3.87083,-7.8981 -5.19039,-11.28355 -1.37443,-3.52617 -3.46141,-7.24572 -6.68124,-10.57093 1.50868,-6.73993 3.34098,-14.04166 5.45807,-22.116989 1.86446,3.8911 1.981,5.11916 4.15116,8.437729 2.49845,3.82057 -0.16772,5.67784 -0.51676,7.55147 0.38483,-1.52324 5.85282,-3.41312 3.58789,-9.888279 -3.75673,-10.74002 -1.00627,-16.39405 -2.312,-21.98367 1.27381,2.33782 3.48338,4.61137 3.72277,7.26725 0.35439,3.93188 3.1442,8.08838 5.39088,12.51087 -2.10145,-9.00775 -1.62973,-18.30577 -6.56187,-26.994221 5.4419,4.445201 5.06993,9.740591 9.84229,14.432711 -1.14121,-4.22093 -1.79723,-8.381905 -2.23397,-11.896431 -0.58362,-4.69636 -2.22974,-9.964751 -6.15001,-14.830618 l -1.78284,-0.871265 c 0.0232,-16.558273 -8.3417,-24.049404 -25.5819,-27.377657 -14.05014,-2.712407 -33.99402,-2.660882 -60.09349,-2.501657 -11.974921,-0.117063 -22.61678,-0.305262 -32.001665,-0.307474 -39.407943,-0.0093 -56.654289,3.260577 -57.9207,28.674606 z"
       style="fill:#01fbff;fill-opacity:1;stroke:none;stroke-width:0.31044921px;stroke-linecap:butt;stroke-linejoin:miter;stroke-opacity:1;filter:url(#filter24010)"
       id="path28369"
       clip-path="url(#clipPath28395)"
       transform="translate(1.889881,-1.5119048)" />
  </g>
</svg>
