<?xml version="1.0" encoding="UTF-8" standalone="no"?>
<svg
   xmlns:dc="http://purl.org/dc/elements/1.1/"
   xmlns:cc="http://creativecommons.org/ns#"
   xmlns:rdf="http://www.w3.org/1999/02/22-rdf-syntax-ns#"
   xmlns:svg="http://www.w3.org/2000/svg"
   xmlns="http://www.w3.org/2000/svg"
   xmlns:xlink="http://www.w3.org/1999/xlink"
   xmlns:sodipodi="http://sodipodi.sourceforge.net/DTD/sodipodi-0.dtd"
   xmlns:inkscape="http://www.inkscape.org/namespaces/inkscape"
   style="enable-background:new"
   id="svg8"
   version="1.1"
   viewBox="0 0 194.86769 217.08717"
   height="820.48694"
   width="736.50781"
   sodipodi:docname="body1.svg"
   inkscape:version="0.92.4 (5da689c313, 2019-01-14)">
  <sodipodi:namedview
     pagecolor="#ffffff"
     bordercolor="#666666"
     borderopacity="1"
     objecttolerance="10"
     gridtolerance="10"
     guidetolerance="10"
     inkscape:pageopacity="0"
     inkscape:pageshadow="2"
     inkscape:window-width="1920"
     inkscape:window-height="1017"
     id="namedview9538"
     showgrid="false"
     inkscape:zoom="1.1505363"
     inkscape:cx="114.81063"
     inkscape:cy="52.337784"
     inkscape:window-x="-8"
     inkscape:window-y="-8"
     inkscape:window-maximized="1"
     inkscape:current-layer="svg8" />
  <defs
     id="defs2">
    <linearGradient
       id="linearGradient1674">
      <stop
         style="stop-color:#ff8c96;stop-opacity:1"
         offset="0"
         id="stop1670" />
      <stop
         style="stop-color:#8cffa3;stop-opacity:1"
         offset="1"
         id="stop1672" />
    </linearGradient>
    <marker
       style="overflow:visible"
       id="Arrow1Lend"
       refX="0"
       refY="0"
       orient="auto">
      <path
         transform="matrix(-0.8,0,0,-0.8,-10,0)"
         style="fill:#000000;fill-opacity:1;fill-rule:evenodd;stroke:#000000;stroke-width:1.00000003pt;stroke-opacity:1"
         d="M 0,0 5,-5 -12.5,0 5,5 Z"
         id="path1327" />
    </marker>
    <linearGradient
       y2="98.023087"
       x2="96.328941"
       y1="287.38916"
       x1="99.465324"
       gradientUnits="userSpaceOnUse"
       id="linearGradient1681"
       xlink:href="#linearGradient1674" />
    <filter
       style="color-interpolation-filters:sRGB;"
       inkscape:label="Drop Shadow"
       id="filter24616">
      <feFlood
         flood-opacity="0.498039"
         flood-color="rgb(0,0,0)"
         result="flood"
         id="feFlood24606" />
      <feComposite
         in="flood"
         in2="SourceGraphic"
         operator="in"
         result="composite1"
         id="feComposite24608" />
      <feGaussianBlur
         in="composite1"
         stdDeviation="3"
         result="blur"
         id="feGaussianBlur24610" />
      <feOffset
         dx="-1"
         dy="0.4"
         result="offset"
         id="feOffset24612" />
      <feComposite
         in="SourceGraphic"
         in2="offset"
         operator="over"
         result="composite2"
         id="feComposite24614" />
    </filter>
    <clipPath
       clipPathUnits="userSpaceOnUse"
       id="clipPath41699">
      <g
         id="g41709"
         style="display:inline;filter:url(#filter24616)"
         transform="translate(-7.5382601,6.5982741)">
        <g
           transform="matrix(0.97094343,0,0,0.89436818,6.6723681,-54.516197)"
           id="g41707"
           style="display:inline;opacity:1;fill:url(#linearGradient1663);fill-opacity:1;stroke:none">
          <g
             id="g41705"
             style="fill:url(#linearGradient1689);fill-opacity:1;stroke:none">
            <g
               id="g41703"
               style="fill:url(#linearGradient1687);fill-opacity:1;stroke:none">
              <path
                 sodipodi:nodetypes="ccccccccccccccccccc"
                 inkscape:connector-curvature="0"
                 style="fill:url(#linearGradient41711);fill-opacity:1;stroke:none;stroke-width:0.26458332px;stroke-linecap:butt;stroke-linejoin:miter;stroke-opacity:1"
                 d="m 99.46473,269.43458 c -8.692945,3.81103 -20.092476,25.42496 -43.909135,25.08268 -2.304023,-10.6671 18.437816,-26.63629 -5.40301,-18.7868 -6.987604,5.61488 -22.059868,8.0513 -40.6545757,8.18638 2.8280707,-11.27402 17.9736617,-19.65087 20.8083387,-29.09742 4.16569,-11.14818 10.003071,-22.45003 9.782794,-34.57304 -1.955036,-21.23774 -12.982755,-40.24622 -16.735278,-61.03533 -0.372932,-11.50102 3.037281,-22.93737 7.16916,-33.58462 4.303594,-10.30039 11.878335,-19.89405 22.995894,-23.10844 20.687639,-6.759423 42.942478,-6.353142 64.437252,-5.33535 13.27305,1.40903 27.47944,2.686755 39.01001,9.97198 13.10472,10.13362 17.50775,27.3819 20.3513,42.91264 2.5433,13.60261 -4.83948,25.94723 -8.6592,38.52463 -3.48792,10.85274 -7.96905,22.04967 -7.31237,33.59856 2.74017,19.01484 23.27772,45.29324 26.98649,64.02424 -15.07676,-0.92642 -17.31254,2.33074 -25.15326,-4.72467 -6.49336,-6.80631 -14.16875,-17.31789 -23.99782,-15.44612 -5.68345,0.97009 13.92267,18.07418 17.1749,29.71126 -27.50055,-1.59753 -50.37941,-25.29126 -56.89149,-26.32058 z"
                 id="path41701" />
            </g>
          </g>
        </g>
      </g>
    </clipPath>
    <linearGradient
       inkscape:collect="always"
       xlink:href="#linearGradient1674"
       id="linearGradient41711"
       gradientUnits="userSpaceOnUse"
       x1="99.465324"
       y1="287.38916"
       x2="96.328941"
       y2="98.023087" />
  </defs>
  <metadata
     id="metadata5">
    <rdf:RDF>
      <cc:Work
         rdf:about="">
        <dc:format>image/svg+xml</dc:format>
        <dc:type
           rdf:resource="http://purl.org/dc/dcmitype/StillImage" />
        <dc:title />
      </cc:Work>
    </rdf:RDF>
  </metadata>
  <g
     transform="translate(-7.5382602,6.5982741)"
     style="display:inline;filter:url(#filter24616)"
     id="layer6">
    <g
       style="display:inline;opacity:1;fill:url(#linearGradient1663);fill-opacity:1;stroke:none"
       id="g1654"
       transform="matrix(0.97094343,0,0,0.89436818,6.6723681,-54.516197)">
      <g
         style="fill:url(#linearGradient1689);fill-opacity:1;stroke:none"
         id="g1644">
        <g
           style="fill:url(#linearGradient1687);fill-opacity:1;stroke:none"
           id="g1648">
          <path
             id="path1640"
             d="m 99.46473,269.43458 c -8.692945,3.81103 -20.092476,25.42496 -43.909135,25.08268 -2.304023,-10.6671 18.437816,-26.63629 -5.40301,-18.7868 -6.987604,5.61488 -22.059868,8.0513 -40.6545757,8.18638 2.8280707,-11.27402 17.9736617,-19.65087 20.8083387,-29.09742 4.16569,-11.14818 10.003071,-22.45003 9.782794,-34.57304 -1.955036,-21.23774 -12.982755,-40.24622 -16.735278,-61.03533 -0.372932,-11.50102 3.037281,-22.93737 7.16916,-33.58462 4.303594,-10.30039 11.878335,-19.89405 22.995894,-23.10844 20.687639,-6.759423 42.942478,-6.353142 64.437252,-5.33535 13.27305,1.40903 27.47944,2.686755 39.01001,9.97198 13.10472,10.13362 17.50775,27.3819 20.3513,42.91264 2.5433,13.60261 -4.83948,25.94723 -8.6592,38.52463 -3.48792,10.85274 -7.96905,22.04967 -7.31237,33.59856 2.74017,19.01484 23.27772,45.29324 26.98649,64.02424 -15.07676,-0.92642 -17.31254,2.33074 -25.15326,-4.72467 -6.49336,-6.80631 -14.16875,-17.31789 -23.99782,-15.44612 -5.68345,0.97009 13.92267,18.07418 17.1749,29.71126 -27.50055,-1.59753 -50.37941,-25.29126 -56.89149,-26.32058 z"
             style="fill:url(#linearGradient1681);fill-opacity:1;stroke:none;stroke-width:0.26458332px;stroke-linecap:butt;stroke-linejoin:miter;stroke-opacity:1"
             inkscape:connector-curvature="0"
             sodipodi:nodetypes="ccccccccccccccccccc" />
        </g>
      </g>
    </g>
  </g>
  <path
     sodipodi:nodetypes="ccccc"
     inkscape:connector-curvature="0"
     id="path41661"
     d="m -1.5567745,207.63111 -4.3299337,9.99946 C 57.786457,224.78285 125.22734,226.35602 190.85459,213.96808 L 182.73247,193.1117 C 121.08171,206.81278 64.05102,212.04966 1.7135122,198.2555"
     style="fill:#01fbff;fill-opacity:1;stroke:none;stroke-width:0.42548963px;stroke-linecap:butt;stroke-linejoin:miter;stroke-opacity:1"
     clip-path="url(#clipPath41699)" />
  <g
     id="g28991"
     style="display:none;fill:#01fbff;fill-opacity:1">
    <path
       sodipodi:nodetypes="csccscc"
       inkscape:connector-curvature="0"
       id="path28977"
       d="M 54.277344,68.234375 C 46.383338,87.412413 39.75555,108.89726 48.6875,127.01758 c 8.686661,17.62268 -1.314769,37.88037 -6.001986,57.80088 l 2.887621,3.50996 c 4.912918,-20.87973 26.417188,-41.20865 17.40717,-59.48733 -8.02459,-16.27954 -10.22027,-42.7758 -2.43128,-61.698708 z"
       style="color:#000000;font-style:normal;font-variant:normal;font-weight:normal;font-stretch:normal;font-size:medium;line-height:normal;font-family:sans-serif;font-variant-ligatures:normal;font-variant-position:normal;font-variant-caps:normal;font-variant-numeric:normal;font-variant-alternates:normal;font-feature-settings:normal;text-indent:0;text-align:start;text-decoration:none;text-decoration-line:none;text-decoration-style:solid;text-decoration-color:#000000;letter-spacing:normal;word-spacing:normal;text-transform:none;writing-mode:lr-tb;direction:ltr;text-orientation:mixed;dominant-baseline:auto;baseline-shift:baseline;text-anchor:start;white-space:normal;shape-padding:0;clip-rule:nonzero;display:inline;overflow:visible;visibility:visible;opacity:1;isolation:auto;mix-blend-mode:normal;color-interpolation:sRGB;color-interpolation-filters:linearRGB;solid-color:#000000;solid-opacity:1;vector-effect:none;fill:#01fbff;fill-opacity:1;fill-rule:nonzero;stroke:none;stroke-width:3.96875;stroke-linecap:butt;stroke-linejoin:miter;stroke-miterlimit:4;stroke-dasharray:none;stroke-dashoffset:0;stroke-opacity:1;color-rendering:auto;image-rendering:auto;shape-rendering:auto;text-rendering:auto;enable-background:accumulate" />
    <path
       style="color:#000000;font-style:normal;font-variant:normal;font-weight:normal;font-stretch:normal;font-size:medium;line-height:normal;font-family:sans-serif;font-variant-ligatures:normal;font-variant-position:normal;font-variant-caps:normal;font-variant-numeric:normal;font-variant-alternates:normal;font-feature-settings:normal;text-indent:0;text-align:start;text-decoration:none;text-decoration-line:none;text-decoration-style:solid;text-decoration-color:#000000;letter-spacing:normal;word-spacing:normal;text-transform:none;writing-mode:lr-tb;direction:ltr;text-orientation:mixed;dominant-baseline:auto;baseline-shift:baseline;text-anchor:start;white-space:normal;shape-padding:0;clip-rule:nonzero;display:inline;overflow:visible;visibility:visible;opacity:1;isolation:auto;mix-blend-mode:normal;color-interpolation:sRGB;color-interpolation-filters:linearRGB;solid-color:#000000;solid-opacity:1;vector-effect:none;fill:#01fbff;fill-opacity:1;fill-rule:nonzero;stroke:none;stroke-width:3.96875;stroke-linecap:butt;stroke-linejoin:miter;stroke-miterlimit:4;stroke-dasharray:none;stroke-dashoffset:0;stroke-opacity:1;color-rendering:auto;image-rendering:auto;shape-rendering:auto;text-rendering:auto;enable-background:accumulate"
       d="m 141.9701,68.884815 c 7.894,19.178038 14.52179,40.662885 5.58984,58.783205 -8.68666,17.62268 1.31477,37.88037 6.00199,57.80088 l -2.88762,3.50996 c -4.91292,-20.87973 -26.09197,-41.53387 -17.08196,-59.81255 8.02459,-16.27954 9.89506,-42.45058 2.10607,-61.373488 z"
       id="path28987"
       inkscape:connector-curvature="0"
       sodipodi:nodetypes="csccscc" />
  </g>
  <path
     style="fill:#01fbff;fill-opacity:1;stroke:none;stroke-width:0.26458332px;stroke-linecap:butt;stroke-linejoin:miter;stroke-opacity:1"
     d="m 28.559858,179.98446 -2.867483,5.39376 c 46.548601,2.4754 95.681065,1.9134 143.096775,-6.01657 l -6.5044,-10.89486 c -44.48405,8.54417 -85.845818,12.50293 -131.610962,6.47676"
     id="path41424"
     inkscape:connector-curvature="0"
     sodipodi:nodetypes="ccccc" />
</svg>
