<?xml version="1.0" encoding="UTF-8" standalone="no"?>
<!-- Created with Inkscape (http://www.inkscape.org/) -->

<svg
   xmlns:dc="http://purl.org/dc/elements/1.1/"
   xmlns:cc="http://creativecommons.org/ns#"
   xmlns:rdf="http://www.w3.org/1999/02/22-rdf-syntax-ns#"
   xmlns:svg="http://www.w3.org/2000/svg"
   xmlns="http://www.w3.org/2000/svg"
   xmlns:xlink="http://www.w3.org/1999/xlink"
   xmlns:sodipodi="http://sodipodi.sourceforge.net/DTD/sodipodi-0.dtd"
   xmlns:inkscape="http://www.inkscape.org/namespaces/inkscape"
   width="736.50781"
   height="820.48694"
   viewBox="0 0 194.86769 217.08717"
   version="1.1"
   id="svg8"
   inkscape:version="0.92.4 (5da689c313, 2019-01-14)"
   sodipodi:docname="oreille2.svg"
   style="enable-background:new">
  <defs
     id="defs2">
    <inkscape:path-effect
       effect="vonkoch"
       id="path-effect5400"
       is_visible="true"
       ref_path="M 22.808514,193.01336 H 178.52492"
       generator="m 22.808514,289.4191 h 51.905468 m 51.905468,0 h 51.90547"
       similar_only="false"
       nbgenerations="1"
       drawall="true"
       maxComplexity="1000" />
    <inkscape:path-effect
       effect="fill_between_many"
       id="path-effect5398"
       is_visible="true"
       linkedpaths=""
       allow_transforms="false" />
    <inkscape:path-effect
       effect="gears"
       id="path-effect5396"
       is_visible="true"
       teeth="32"
       phi="6.9"
       min_radius="5" />
    <inkscape:path-effect
       effect="roughen"
       id="path-effect1691"
       is_visible="true"
       method="size"
       max_segment_size="5"
       segments="10"
       displace_x="50;1"
       displace_y="50;1"
       global_randomize="0.2;904323410"
       handles="rand"
       shift_nodes="true"
       fixed_displacement="false"
       spray_tool_friendly="false" />
    <inkscape:path-effect
       effect="taper_stroke"
       id="path-effect1685"
       is_visible="true"
       stroke_width="2.7"
       attach_start="0.99999"
       end_offset="0.2"
       smoothing="0.3"
       jointype="extrapolated"
       miter_limit="100" />
    <marker
       inkscape:stockid="Arrow1Lend"
       orient="auto"
       refY="0"
       refX="0"
       id="Arrow1Lend"
       style="overflow:visible"
       inkscape:isstock="true">
      <path
         id="path1327"
         d="M 0,0 5,-5 -12.5,0 5,5 Z"
         style="fill:#000000;fill-opacity:1;fill-rule:evenodd;stroke:#000000;stroke-width:1.00000003pt;stroke-opacity:1"
         transform="matrix(-0.8,0,0,-0.8,-10,0)"
         inkscape:connector-curvature="0" />
    </marker>
    <linearGradient
       gradientTransform="translate(-13.018913,15.480715)"
       inkscape:collect="always"
       xlink:href="#linearGradient40081"
       id="linearGradient40083"
       x1="86.913261"
       y1="26.981455"
       x2="132.64838"
       y2="26.981455"
       gradientUnits="userSpaceOnUse" />
    <linearGradient
       inkscape:collect="always"
       id="linearGradient40081">
      <stop
         style="stop-color:#c8b7b7;stop-opacity:1;"
         offset="0"
         id="stop40077" />
      <stop
         style="stop-color:#01fbff;stop-opacity:1"
         offset="1"
         id="stop40079" />
    </linearGradient>
  </defs>
  <sodipodi:namedview
     id="base"
     pagecolor="#ffffff"
     bordercolor="#666666"
     borderopacity="1.0"
     inkscape:pageopacity="0.0"
     inkscape:pageshadow="2"
     inkscape:zoom="0.98994949"
     inkscape:cx="181.18042"
     inkscape:cy="565.61366"
     inkscape:document-units="mm"
     inkscape:current-layer="svg8"
     showgrid="false"
     units="px"
     inkscape:window-width="1920"
     inkscape:window-height="1017"
     inkscape:window-x="-8"
     inkscape:window-y="-8"
     inkscape:window-maximized="1"
     inkscape:snap-intersection-paths="true"
     inkscape:snap-nodes="false" />
  <metadata
     id="metadata5">
    <rdf:RDF>
      <cc:Work
         rdf:about="">
        <dc:format>image/svg+xml</dc:format>
        <dc:type
           rdf:resource="http://purl.org/dc/dcmitype/StillImage" />
        <dc:title />
      </cc:Work>
    </rdf:RDF>
  </metadata>
  <g
     inkscape:label="oreille2"
     id="g7370"
     inkscape:groupmode="layer"
     style="display:inline"
     transform="translate(-7.5382602,6.5982741)">
    <g
       id="g7390"
       transform="matrix(1.8516114,0,0,2.5096773,-89.530879,-84.471669)">
      <g
         transform="translate(0,-85.333316)"
         id="g7358">
        <path
           sodipodi:nodetypes="ccsssssscc"
           inkscape:connector-curvature="0"
           id="path7356"
           d="m 72.949403,140.23436 c -2.385694,-3.55051 -9.9771,-12.91292 -7.370535,-23.05655 5.796049,-0.76069 10.18364,-0.38584 13.55834,0.55275 0.952166,0.26482 -2.156909,1.62877 -1.357126,1.97051 0.518348,0.22148 4.987164,-0.59783 5.447655,-0.35293 0.566353,0.3012 1.090778,0.61747 1.577773,0.9423 0.479238,0.31965 -0.914974,0.7982 -0.503941,1.12824 0.355798,0.28568 2.524852,0.42232 2.835539,0.70712 1.419998,1.30168 2.397881,2.55213 3.199201,3.36749 14.166271,24.3084 2.131881,27.1343 -17.386906,14.74107 z"
           style="fill:#00ffff;stroke:none;stroke-width:0.26458332px;stroke-linecap:butt;stroke-linejoin:miter;stroke-opacity:1" />
      </g>
      <path
         style="fill:#ff0000;stroke:none;stroke-width:0.26458332px;stroke-linecap:butt;stroke-linejoin:miter;stroke-opacity:1"
         d="m 75.784225,50.270834 c 13.191989,9.14396 27.477615,16.430751 9.165923,-8.882439 -3.022247,-3.6385 -8.88749,-6.116704 -15.213542,-5.197175 -1.069373,6.461746 2.443559,10.834689 6.047619,14.079614 z"
         id="path7360"
         inkscape:connector-curvature="0"
         sodipodi:nodetypes="cccc" />
      <g
         id="g7380"
         transform="matrix(-1,0,0,1,211.07383,-85.522304)">
        <path
           style="fill:#00ffff;stroke:none;stroke-width:0.26458332px;stroke-linecap:butt;stroke-linejoin:miter;stroke-opacity:1"
           d="m 72.949403,140.23436 c -1.608171,-2.39336 -5.5818,-7.42763 -7.202678,-13.56189 -0.153132,-0.57953 1.143671,-1.5454 1.036517,-2.14327 -0.05452,-0.3042 -1.410974,-0.56918 -1.944928,-1.1557 -0.378694,-0.41598 0.01142,-1.18083 -0.01048,-1.40156 -0.04017,-0.40481 2.892052,0.16609 2.877944,-0.24481 -0.01889,-0.55026 -2.667122,-0.72912 -2.634443,-1.28873 0.06269,-1.07345 0.22535,-2.16244 0.507537,-3.26059 17.263049,-2.26565 22.031714,5.54199 24.757441,8.31548 14.166267,24.3084 2.131881,27.1343 -17.386906,14.74107 z"
           id="path7378"
           inkscape:connector-curvature="0"
           sodipodi:nodetypes="cssssssccc" />
      </g>
      <path
         sodipodi:nodetypes="cccc"
         inkscape:connector-curvature="0"
         id="path7382"
         d="m 135.28961,50.081846 c -13.19199,9.14396 -27.47761,16.430751 -9.16592,-8.882439 3.02224,-3.6385 8.88749,-6.116704 15.21354,-5.197175 1.06937,6.461746 -2.44356,10.834689 -6.04762,14.079614 z"
         style="fill:#ff0000;stroke:none;stroke-width:0.26458332px;stroke-linecap:butt;stroke-linejoin:miter;stroke-opacity:1" />
    </g>
  </g>
  <path
     style="display:inline;fill:url(#linearGradient40083);fill-opacity:1;stroke:none;stroke-width:0.26458332px;stroke-linecap:butt;stroke-linejoin:miter;stroke-opacity:1;enable-background:new"
     d="m 73.894347,72.889253 c 0,0 13.372992,-64.1055366 21.92262,-63.5000004 8.549623,0.6055362 23.812503,66.1458334 23.812503,66.1458334 z"
     id="path40075"
     inkscape:connector-curvature="0"
     sodipodi:nodetypes="czcc" />
  <path
     style="display:inline;fill:#6c5d53;stroke:none;stroke-width:0.26458332px;stroke-linecap:butt;stroke-linejoin:miter;stroke-opacity:1;enable-background:new"
     d="m 78.33835,53.877769 28.06195,3.51446 -29.751378,3.201333 z"
     id="path40091"
     inkscape:connector-curvature="0"
     sodipodi:nodetypes="cccc" />
  <path
     style="display:inline;fill:#6c5d53;stroke:none;stroke-width:0.26458332px;stroke-linecap:butt;stroke-linejoin:miter;stroke-opacity:1;enable-background:new"
     d="M 109.31259,37.613328 111.96317,45.673 92.037207,42.651159 Z"
     id="path40093"
     inkscape:connector-curvature="0"
     sodipodi:nodetypes="cccc" />
  <path
     style="display:inline;fill:#6c5d53;stroke:none;stroke-width:0.26458332px;stroke-linecap:butt;stroke-linejoin:miter;stroke-opacity:1;enable-background:new"
     d="m 87.573061,22.017064 11.645686,4.759094 -13.7732,1.362057 z"
     id="path40095"
     inkscape:connector-curvature="0"
     sodipodi:nodetypes="cccc" />
</svg>
